<svg width="160" height="160" viewBox="0 0 160 160" fill="none" xmlns="http://www.w3.org/2000/svg">
<circle cx="80.1555" cy="79.6586" r="69.0668" fill="white"/>
<path d="M80.1555 0.0280151C36.1794 0.0280151 0.521362 35.679 0.521362 79.6586C0.521362 123.638 36.1759 159.289 80.1555 159.289C124.139 159.289 159.79 123.638 159.79 79.6586C159.79 35.679 124.139 0.0280151 80.1555 0.0280151ZM80.1555 23.8385C94.7069 23.8385 106.498 35.6335 106.498 50.178C106.498 64.7259 94.7069 76.5175 80.1555 76.5175C65.611 76.5175 53.8195 64.7259 53.8195 50.178C53.8195 35.6335 65.611 23.8385 80.1555 23.8385ZM80.138 138.469C65.625 138.469 52.3328 133.184 42.0804 124.436C39.5829 122.305 38.1417 119.182 38.1417 115.904C38.1417 101.153 50.0802 89.3479 64.8345 89.3479H95.4834C110.241 89.3479 122.134 101.153 122.134 115.904C122.134 119.185 120.7 122.302 118.199 124.432C107.95 133.184 94.6544 138.469 80.138 138.469Z" fill="#30313F"/>
</svg>
